<svg width="116" height="45" xmlns="http://www.w3.org/2000/svg">
    <g fill="none" fill-rule="evenodd">
        <g stroke="#A6A3FF" stroke-linecap="round">
            <path d="m13.914 11.447-3.696-4.393a1.617 1.617 0 0 1 .17-2.25c.37-.324.867-.453 1.344-.35l5.36 1.157 5.85-1.21a1.568 1.568 0 0 1 1.847 1.247c.096.483-.032.983-.346 1.357l-3.84 4.564c.097-.027.179-.024.24.017l.074.002c4.035 7.113 9.518 10.034 9.518 16.084 0 7.223-5.752 13.078-12.848 13.078-7.096 0-12.848-5.855-12.848-13.078 0-5.985 4.919-9.194 9.175-16.225z" stroke-width="2.3" stroke-linejoin="round"/>
            <path d="M12.525 11.43c2.221.59 3.87.886 4.947.886s2.617-.295 4.62-.886" stroke-width="3"/>
        </g>
        <path d="M13.645 32.036h-2.577c-.542 0-.81 0-.973-.11a.708.708 0 0 1-.296-.547c-.01-.205.124-.455.391-.956l6.364-11.956c.27-.507.408-.761.58-.855a.62.62 0 0 1 .594 0c.173.094.31.348.58.855l1.31 2.435.006.012c.292.545.44.82.505 1.11.072.317.072.65 0 .967-.065.292-.212.57-.509 1.124l-3.342 6.298-.009.016c-.294.549-.443.827-.65 1.037-.225.23-.496.396-.793.49-.27.08-.574.08-1.181.08zm6.508 0c-.544 0-.818 0-.978-.11a.715.715 0 0 1-.297-.55c-.01-.204.125-.452.395-.948l.006-.012 1.843-3.373c.271-.497.408-.744.578-.838.186-.1.404-.1.59 0 .169.092.3.328.56.797l.021.038 1.85 3.373.027.049c.256.471.387.712.377.91a.706.706 0 0 1-.296.55c-.164.114-.438.114-.983.114h-3.693z" fill="#A6A3FF"/>
        <path d="M49.793 26.292h-5.565l-1.097 2.596H41l5.009-11.215h2.035l5.024 11.215h-2.162l-1.113-2.596zm-.684-1.634-2.099-4.902-2.083 4.902h4.182zm13.134-4.326-3.641 8.556H56.55l-3.64-8.556h2.066l2.64 6.345 2.719-6.345h1.908zm7.354.81c.662.603.993 1.514.993 2.731v5.015h-1.876v-1.042c-.244.374-.59.66-1.041.858-.45.197-.994.296-1.63.296-.636 0-1.193-.11-1.67-.328-.477-.22-.845-.524-1.105-.914a2.33 2.33 0 0 1-.39-1.321c0-.77.284-1.386.851-1.85.567-.466 1.46-.698 2.68-.698h2.194v-.128c0-.598-.178-1.057-.533-1.378-.355-.32-.882-.48-1.582-.48-.477 0-.946.074-1.407.224-.461.15-.85.358-1.169.625l-.779-1.458c.445-.342.98-.604 1.606-.785a7.095 7.095 0 0 1 1.988-.273c1.25 0 2.207.302 2.87.906zm-1.813 6.056c.387-.23.66-.558.819-.986v-.993h-2.051c-1.145 0-1.718.38-1.718 1.137 0 .364.143.652.43.866.286.213.683.32 1.192.32.498 0 .941-.115 1.328-.344zM73.134 17h1.988v11.888h-1.988V17zm6.09 11.44a4.072 4.072 0 0 1-1.614-1.563c-.387-.667-.58-1.423-.58-2.267 0-.844.193-1.597.58-2.259a4.088 4.088 0 0 1 1.614-1.554c.69-.374 1.463-.56 2.321-.56.87 0 1.649.186 2.338.56a4.088 4.088 0 0 1 1.614 1.554c.387.662.58 1.415.58 2.26 0 .843-.193 1.599-.58 2.266a4.072 4.072 0 0 1-1.614 1.562c-.69.374-1.468.561-2.338.561-.858 0-1.632-.187-2.32-.56zm4.134-1.891c.477-.492.716-1.138.716-1.939 0-.8-.239-1.447-.716-1.938-.477-.492-1.081-.737-1.813-.737-.73 0-1.332.245-1.804.737-.472.49-.708 1.137-.708 1.938 0 .801.236 1.447.708 1.939.472.491 1.073.737 1.804.737.732 0 1.336-.246 1.813-.737zm10.74-5.407c.663.603.994 1.514.994 2.731v5.015h-1.876v-1.042c-.244.374-.59.66-1.041.858-.45.197-.994.296-1.63.296-.636 0-1.193-.11-1.67-.328-.477-.22-.845-.524-1.105-.914a2.33 2.33 0 0 1-.39-1.321c0-.77.284-1.386.852-1.85.567-.466 1.46-.698 2.679-.698h2.194v-.128c0-.598-.178-1.057-.533-1.378-.355-.32-.882-.48-1.582-.48-.477 0-.946.074-1.407.224-.461.15-.85.358-1.169.625l-.779-1.458c.445-.342.98-.604 1.606-.785a7.095 7.095 0 0 1 1.988-.273c1.25 0 2.207.302 2.87.906zm-1.812 6.056c.387-.23.66-.558.819-.986v-.993h-2.051c-1.145 0-1.717.38-1.717 1.137 0 .364.143.652.429.866.286.213.684.32 1.192.32.499 0 .941-.115 1.328-.344zm12.744-6.016c.647.63.97 1.564.97 2.803v4.903h-1.988v-4.646c0-.748-.174-1.311-.524-1.69-.35-.38-.848-.57-1.495-.57-.731 0-1.309.222-1.733.666-.424.443-.636 1.081-.636 1.914v4.326h-1.988v-8.556h1.893v1.106a3.108 3.108 0 0 1 1.24-.897c.498-.203 1.06-.305 1.685-.305 1.07 0 1.93.315 2.576.946z" stroke="#6B70ED" stroke-width=".2" fill="#6B70ED" stroke-linecap="round" stroke-linejoin="round"/>
    </g>
</svg>
